<svg width="20" height="20" viewBox="0 0 24 24" fill="none" xmlns="http://www.w3.org/2000/svg"><path fill-rule="evenodd" clip-rule="evenodd" d="M19 3.5H5C4.17157 3.5 3.5 4.17157 3.5 5V19C3.5 19.8284 4.17157 20.5 5 20.5H19C19.8284 20.5 20.5 19.8284 20.5 19V5C20.5 4.17157 19.8284 3.5 19 3.5ZM5 1C2.79086 1 1 2.79086 1 5V19C1 21.2091 2.79086 23 5 23H19C21.2091 23 23 21.2091 23 19V5C23 2.79086 21.2091 1 19 1H5Z" fill="#111111"/><path d="M13.25 7C13.25 6.30964 12.6904 5.75 12 5.75C11.3096 5.75 10.75 6.30964 10.75 7V10.75H7C6.30964 10.75 5.75 11.3096 5.75 12C5.75 12.6904 6.30964 13.25 7 13.25H10.75V17C10.75 17.6904 11.3096 18.25 12 18.25C12.6904 18.25 13.25 17.6904 13.25 17V13.25H17C17.6904 13.25 18.25 12.6904 18.25 12C18.25 11.3096 17.6904 10.75 17 10.75H13.25V7Z" fill="#111111"/></svg>