<svg xmlns="http://www.w3.org/2000/svg" width="20" height="20" viewBox="0 0 24 24" fill="none"><path fill-rule="evenodd" clip-rule="evenodd" d="M11.3217 0.307444C11.7345 0.0407477 12.2654 0.0407477 12.6782 0.307444L22.3616 6.56277C22.7181 6.79303 22.9334 7.1884 22.9334 7.61275V23.25H1.06653V7.61275C1.06653 7.1884 1.28181 6.79303 1.63826 6.56277L11.3217 0.307444ZM3.56653 8.2934V20.75H20.4334V8.2934L11.9999 2.84555L3.56653 8.2934Z" fill="black"/><path fill-rule="evenodd" clip-rule="evenodd" d="M14.25 16.0469V20.5H14.2344V23H16.75V16.0469C16.75 13.4235 14.6234 11.2969 12 11.2969C9.37665 11.2969 7.25 13.4235 7.25 16.0469V23H9.75V20.5V20.1094V16.0469C9.75 14.8042 10.7574 13.7969 12 13.7969C13.2426 13.7969 14.25 14.8042 14.25 16.0469Z" fill="black"/></svg>