<svg xmlns="http://www.w3.org/2000/svg" width="20" height="20" viewBox="0 0 24 24" fill="none"><path d="M21.6834 22H2.31659V7.61275L12 1.35742L21.6834 7.61275V22Z" fill="black"/><path d="M2.31659 22H1.31659V23H2.31659V22ZM21.6834 22V23H22.6834V22H21.6834ZM21.6834 7.61275H22.6834C22.6834 7.27327 22.5112 6.95697 22.226 6.77277L21.6834 7.61275ZM2.31659 7.61275L1.77398 6.77277C1.48882 6.95697 1.31659 7.27327 1.31659 7.61275H2.31659ZM12 1.35742L12.5426 0.51744C12.2123 0.304083 11.7877 0.304083 11.4574 0.51744L12 1.35742ZM2.31659 23H21.6834V21H2.31659V23ZM22.6834 22V7.61275H20.6834V22H22.6834ZM1.31659 7.61275V22H3.31659V7.61275H1.31659ZM22.226 6.77277L12.5426 0.51744L11.4574 2.1974L21.1408 8.45273L22.226 6.77277ZM11.4574 0.51744L1.77398 6.77277L2.8592 8.45273L12.5426 2.1974L11.4574 0.51744Z" fill="black"/><path d="M9.25 17.0469C9.25 15.5281 10.4812 14.2969 12 14.2969C13.5188 14.2969 14.75 15.5281 14.75 17.0469V23.5293H9.25V17.0469Z" fill="white"/></svg>