<svg width="20" height="20" viewBox="0 0 24 24" fill="none" xmlns="http://www.w3.org/2000/svg"><g clip-path="url(%23clip0_449_32468)"><path fill-rule="evenodd" clip-rule="evenodd" d="M18 12.5C17.172 12.5 16.5 11.829 16.5 11C16.5 10.171 17.172 9.5 18 9.5C18.828 9.5 19.5 10.171 19.5 11C19.5 11.829 18.828 12.5 18 12.5ZM12 12.5C11.172 12.5 10.5 11.829 10.5 11C10.5 10.171 11.172 9.5 12 9.5C12.828 9.5 13.5 10.171 13.5 11C13.5 11.829 12.828 12.5 12 12.5ZM6 9.5C6.828 9.5 7.5 10.171 7.5 11C7.5 11.829 6.828 12.5 6 12.5C5.172 12.5 4.5 11.829 4.5 11C4.5 10.171 5.172 9.5 6 9.5ZM12 0C5.925 0 1 4.925 1 11C1 13.636 1.93 16.054 3.476 17.949L2.016 23.377C1.909 23.805 2.366 24.151 2.749 23.933L7.83 21.177C9.117 21.704 10.523 22 12 22C18.075 22 23 17.075 23 11C23 4.925 18.075 0 12 0Z" fill="%23111111"/></g><defs><clipPath id="clip0_449_32468"><rect width="24" height="24" fill="white"/></clipPath></defs></svg>