<svg width="20" height="20" viewBox="0 0 24 24" fill="none" xmlns="http://www.w3.org/2000/svg"><g clip-path="url(#clip0_800_18532)"><rect width="24" height="24" fill="none"/><path d="M4.6831 18.2737L4.84947 17.6551L4.44456 17.1588C3.07314 15.4778 2.25 13.3365 2.25 11C2.25 5.61536 6.61536 1.25 12 1.25C17.3846 1.25 21.75 5.61536 21.75 11C21.75 16.3846 17.3846 20.75 12 20.75C10.6917 20.75 9.44625 20.4881 8.30368 20.0202L7.75509 19.7956L7.23401 20.0782L3.67907 22.0065L4.6831 18.2737Z" stroke="#111111" stroke-width="2.5"/><circle cx="6.99219" cy="11.0078" r="1.5" fill="#111111"/><path d="M13.4961 11.0078C13.4961 11.8362 12.8245 12.5078 11.9961 12.5078C11.1677 12.5078 10.4961 11.8362 10.4961 11.0078C10.4961 10.1794 11.1677 9.50781 11.9961 9.50781C12.8245 9.50781 13.4961 10.1794 13.4961 11.0078Z" fill="#111111"/><circle cx="17" cy="11.0078" r="1.5" fill="#111111"/></g><defs><clipPath id="clip0_800_18532"><rect width="24" height="24" fill="white"/></clipPath></defs></svg>